<svg width="149" height="121" viewBox="0 0 149 121" fill="none" xmlns="http://www.w3.org/2000/svg">
<g clip-path="url(#clip0_1_46)">
<path d="M132.337 45.5328C123.964 42.8589 120.043 34.1576 123.538 26.1136C127.053 18.0605 123.112 9.36874 114.738 6.6948C106.364 4.02088 96.7314 8.38379 93.2163 16.4369C89.7009 24.4902 80.0589 28.8346 71.6939 26.1792C63.3204 23.5053 53.6869 27.8683 50.1718 35.9214C46.6565 43.9746 37.0146 48.3191 28.6494 45.6638C20.2759 42.9898 10.6425 47.3528 7.12726 55.406C3.61201 63.4591 7.55314 72.1511 15.9266 74.825C24.3002 77.499 28.2207 86.2002 24.7262 94.2441C21.2109 102.297 25.1522 110.989 33.5257 113.663C41.8992 116.337 51.5326 111.974 55.0479 103.921C58.563 95.8677 68.205 91.5233 76.5701 94.1786C84.9436 96.8525 94.577 92.4895 98.0923 84.4363C101.608 76.3832 111.249 72.0387 119.615 74.694C127.988 77.3679 137.621 73.0051 141.136 64.9519C144.644 56.8798 140.711 48.2067 132.337 45.5328Z" fill="#58D1BD"/>
</g>
<defs>
<clipPath id="clip0_1_46">
<rect width="129" height="74" fill="white" transform="translate(0 52.9931) rotate(-24.255)"/>
</clipPath>
</defs>
</svg>
