<svg width="200" height="200" viewBox="0 0 200 200" fill="none" xmlns="http://www.w3.org/2000/svg">
<g clip-path="url(#clip0_1_43)">
<path d="M6.22192 59.8564L47.07 63.6749C51.6779 64.1101 55.2841 59.8781 54.0264 55.5374L42.9184 16.9277C45.701 15.2198 45.4895 15.3503 48.261 13.6531L79.0031 40.2089C82.4641 43.2006 87.9289 41.8625 89.532 37.6197L103.768 0C107.04 0.21758 106.795 0.195828 110.067 0.413409L118.972 39.567C119.973 43.9839 125.194 46.0291 129.045 43.527L163.181 21.2685C165.697 23.3246 165.507 23.1723 168.023 25.2284L151.684 62.0213C149.847 66.1663 152.83 70.8225 157.46 71.0074L198.464 72.6175C199.266 75.7289 199.198 75.4895 200 78.6008L164.662 98.9773C160.677 101.273 160.298 106.766 163.927 109.563L196.127 134.421C194.902 137.402 194.991 137.173 193.778 140.144L152.93 136.325C148.322 135.89 144.716 140.122 145.973 144.463L157.081 183.072C154.299 184.78 154.511 184.65 151.739 186.347L120.998 159.791C117.536 156.799 112.071 158.137 110.468 162.38L96.2328 200C92.9602 199.783 93.2047 199.804 89.9328 199.587L81.0281 160.433C80.0266 156.016 74.8066 153.971 70.9555 156.473L36.8191 178.731C34.3036 176.675 34.4928 176.827 31.9774 174.771L48.3166 137.979C50.153 133.834 47.1702 129.177 42.54 128.993L1.53598 127.383C0.734604 124.271 0.801383 124.51 0 121.399L35.3386 101.023C39.3233 98.7273 39.7017 93.2336 36.0733 90.4375L3.87345 65.5788C5.09778 62.5979 4.99759 62.8264 6.22192 59.8564Z" fill="#D8EBE9"/>
</g>
<defs>
<clipPath id="clip0_1_43">
<rect width="200" height="200" fill="white"/>
</clipPath>
</defs>
</svg>
